<svg width="1440" height="750" viewBox="0 0 1440 750" fill="none" xmlns="http://www.w3.org/2000/svg">
    <path d="M1800.12 954.513C1804.19 980.26 1799.71 1004.06 1786.67 1025.92C1773.64 1047.78 1756.87 1066.93 1736.37 1083.37C1715.36 1096.6 1692.49 1108.47 1667.76 1118.98C1646.24 1128.99 1627.43 1135.27 1611.34 1137.82C1543.73 1148.53 1480.17 1122.3 1420.67 1059.15C1360.65 992.776 1307.67 918.693 1261.71 836.898C1215.25 751.884 1177.85 672.033 1149.52 597.343C1124.41 522.144 1111.34 481.326 1110.32 474.889C1096.61 513.35 1085.12 576.203 1075.83 663.448C1069.77 750.183 1059.13 839.292 1043.92 930.775C1028.2 1019.04 1003.15 1100.53 968.786 1175.26C937.129 1246.25 887.496 1287.1 819.889 1297.81C787.695 1302.91 754.052 1288.44 718.961 1254.41C683.869 1220.38 648.604 1174.83 613.164 1117.77C577.724 1060.7 541.009 995.583 503.021 922.423C468.251 848.753 432.127 776.947 394.648 707.005C360.389 636.554 326.894 570.93 294.163 510.133C260.923 446.118 229.977 396.586 201.325 361.535C189.654 412.869 182.397 481.649 179.553 567.874C179.928 653.589 182.678 743.877 187.802 838.738C192.416 930.38 198.64 1021.77 206.473 1112.9C214.307 1204.03 223.576 1283.39 234.28 1350.97C241.416 1396.03 233.636 1430.25 210.939 1453.64C191.462 1476.52 168.845 1490 143.09 1494.08C107.677 1499.69 68.6954 1482.77 26.1458 1443.32C-16.9135 1400.66 -62.0117 1345.12 -109.149 1276.71C-156.286 1208.29 -203.343 1129.97 -250.319 1041.74C-294.075 952.998 -336.222 864.002 -376.76 774.751C-414.078 684.989 -445.802 599.29 -471.933 517.654C-498.573 432.8 -516.48 361.408 -525.656 303.479C-532.282 261.641 -536.789 222.766 -539.177 186.855C-540.545 157.38 -543.268 129.77 -547.346 104.023C-548.204 77.7672 -548.888 63.0299 -549.398 59.8116C-550.927 50.1567 -555.166 44.23 -562.114 42.0316C-565.844 39.3231 -568.728 31.5323 -570.767 18.6591C-572.296 9.00422 -563.322 -7.26278 -543.844 -30.1419C-521.657 -56.7492 -497.686 -72.0925 -471.931 -76.1717C-426.859 -83.3104 -396.355 -78.2446 -380.419 -60.9744C-361.264 -44.214 -349.647 -22.9607 -345.57 2.78563C-344.04 12.4405 -343.356 27.1778 -343.517 46.9975C-340.459 66.3074 -333.578 109.754 -322.873 177.339C-315.737 222.395 -296.984 288.704 -266.615 376.267C-236.246 463.83 -202.402 552.492 -165.084 642.253C-127.766 732.015 -91.4677 815.339 -56.1886 892.228C-18.2 965.388 10.3721 1010.35 29.5274 1027.11C33.9274 1013.21 34.8529 998.223 32.3043 982.131C32.4653 962.311 33.3909 947.319 35.0812 937.154L25.5047 532.89C22.5807 431.084 31.7697 322.41 53.0717 206.869C77.0834 87.5994 106.783 -6.17836 142.169 -74.4646C154.189 -102.76 169.856 -118.438 189.173 -121.498C208.489 -124.557 228.49 -112.879 249.174 -86.4639C318.176 -5.01992 372.691 78.7187 412.719 164.752C455.456 247.057 493.364 330.126 526.443 413.961C562.232 494.067 599.885 575.528 639.403 658.343C681.631 737.43 738.6 815.831 810.312 893.547C829.441 847.63 850.931 774.946 874.781 675.497C898.122 572.829 921.463 470.161 944.804 367.493C971.365 264.316 996.744 174.521 1020.94 98.1096C1044.63 18.4798 1066.14 -22.8648 1085.45 -25.9242C1095.11 -27.4539 1111.46 -28.3943 1134.51 -28.7452C1157.55 -29.0963 1173.91 -30.0367 1183.56 -31.5664C1212.54 -36.1555 1242.04 -6.18764 1272.06 58.3372C1301.57 119.644 1329.9 194.333 1357.05 282.406C1386.91 366.751 1415.41 452.959 1442.56 541.032C1472.42 625.377 1500.58 688.547 1527.03 730.544C1545.01 760.687 1569.16 788.202 1599.51 813.087C1629.85 837.973 1659.94 861.249 1689.77 882.916C1726.55 906.782 1763.33 930.648 1800.12 954.513Z" fill="white"/>
</svg>
