<svg width="360" height="640" viewBox="0 0 360 640" fill="none" xmlns="http://www.w3.org/2000/svg">
<path d="M868.503 501.529C870.402 513.516 868.316 524.598 862.245 534.775C856.175 544.952 848.368 553.868 838.825 561.524C829.045 567.68 818.397 573.207 806.88 578.103C796.863 582.761 788.107 585.684 780.613 586.871C749.136 591.856 719.546 579.648 691.842 550.245C663.9 519.343 639.231 484.852 617.835 446.77C596.201 407.19 578.79 370.013 565.6 335.239C553.908 300.228 547.826 281.224 547.351 278.227C540.968 296.133 535.616 325.396 531.294 366.016C528.471 406.397 523.518 447.884 516.436 490.477C509.116 531.571 497.456 569.513 481.456 604.302C466.717 637.355 443.609 656.375 412.132 661.36C397.144 663.734 381.48 656.999 365.143 641.155C348.805 625.312 332.386 604.105 315.886 577.535C299.386 550.965 282.293 520.65 264.606 486.588C248.418 452.289 231.6 418.858 214.15 386.295C198.2 353.494 182.606 322.941 167.367 294.636C151.891 264.832 137.483 241.771 124.143 225.452C118.71 249.352 115.331 281.374 114.007 321.519C114.182 361.426 115.462 403.462 117.848 447.626C119.996 490.293 122.893 532.84 126.541 575.269C130.188 617.698 134.503 654.646 139.487 686.111C142.809 707.088 139.187 723.022 128.62 733.911C119.552 744.563 109.022 750.839 97.031 752.738C80.5434 755.349 62.3945 747.472 42.5844 729.106C22.537 709.242 1.54032 683.385 -20.4056 651.534C-42.3516 619.683 -64.26 583.218 -86.131 542.139C-106.503 500.823 -126.126 459.389 -144.999 417.836C-162.373 376.045 -177.143 336.145 -189.309 298.138C-201.712 258.631 -210.05 225.393 -214.321 198.422C-217.406 178.944 -219.505 160.845 -220.616 144.125C-221.253 130.403 -222.521 117.548 -224.42 105.561C-224.819 93.3365 -225.138 86.4752 -225.375 84.9768C-226.087 80.4817 -228.061 77.7224 -231.296 76.6989C-233.032 75.4379 -234.375 71.8106 -235.324 65.8172C-236.036 61.3221 -231.858 53.7486 -222.789 43.0966C-212.46 30.7088 -201.299 23.5654 -189.308 21.6662C-168.324 18.3426 -154.122 20.7011 -146.703 28.7417C-137.784 36.5449 -132.376 46.44 -130.478 58.4269C-129.766 62.9219 -129.447 69.7833 -129.522 79.0109C-128.098 88.0011 -124.894 108.229 -119.911 139.695C-116.588 160.672 -107.857 191.544 -93.7181 232.311C-79.5789 273.078 -63.8221 314.357 -46.4477 356.148C-29.0734 397.939 -12.1736 436.733 4.25143 472.53C21.9381 506.592 35.2405 527.524 44.1588 535.327C46.2073 528.859 46.6382 521.879 45.4516 514.387C45.5266 505.159 45.9576 498.179 46.7445 493.447L42.2859 305.231C40.9246 257.832 45.2028 207.236 55.1205 153.443C66.2998 97.9141 80.127 54.2534 96.6023 22.461C102.198 9.28708 109.493 1.98795 118.486 0.563555C127.479 -0.86084 136.791 4.5761 146.421 16.8744C178.547 54.7928 203.928 93.7795 222.564 133.834C242.461 172.154 260.11 210.829 275.511 249.86C292.174 287.156 309.704 325.082 328.103 363.639C347.763 400.46 374.286 436.962 407.674 473.144C416.58 451.766 426.585 417.927 437.689 371.625C448.556 323.826 459.423 276.026 470.29 228.226C482.656 180.189 494.472 138.383 505.739 102.807C516.768 65.7337 526.779 46.4846 535.773 45.0602C540.269 44.348 547.882 43.9102 558.612 43.7468C569.341 43.5834 576.954 43.1456 581.451 42.4334C594.941 40.2968 608.674 54.2491 622.651 84.2904C636.391 112.833 649.581 147.607 662.221 188.612C676.123 227.88 689.394 268.017 702.035 309.022C715.937 348.291 729.046 377.701 741.361 397.254C749.73 411.288 760.978 424.098 775.105 435.684C789.231 447.27 803.24 458.107 817.129 468.195C834.254 479.306 851.378 490.417 868.503 501.529Z" fill="white"/>
</svg>
